<svg version="1.1" id="Layer_1" xmlns="http://www.w3.org/2000/svg" xmlns:xlink="http://www.w3.org/1999/xlink" x="0px" y="0px"
	 width="100%" viewBox="0 0 768 768" enable-background="new 0 0 768 768" xml:space="preserve">
<path fill="#000000" opacity="1.000000" stroke="none" 
	d="
M431.000000,627.944153 
	C353.504211,627.954834 276.508453,627.964600 199.512665,627.974365 
	C198.846039,627.974487 198.179321,627.982178 197.512787,627.974854 
	C191.276749,627.906677 187.919189,625.536133 187.746796,621.082764 
	C187.573959,616.618042 190.465836,614.287842 196.986816,613.613892 
	C197.443497,613.566650 197.887543,613.397156 198.977692,613.124207 
	C187.284088,603.424133 181.287796,591.690063 183.794464,576.560181 
	C185.047775,568.995422 190.080750,560.649170 195.672577,557.093628 
	C197.799469,558.005371 197.988297,560.204407 198.725693,561.973328 
	C206.000519,579.424500 215.871964,595.106323 230.144547,607.716125 
	C237.282440,614.022461 244.266541,615.350830 254.111893,612.816895 
	C254.545242,611.999451 253.902527,611.611145 253.402954,611.272217 
	C224.544571,591.697144 208.046173,564.002502 200.778778,530.447815 
	C195.513016,506.134949 195.630981,481.631653 198.436279,456.953125 
	C202.351334,422.512085 211.026184,389.289185 222.566437,356.738220 
	C229.316620,337.698395 237.513733,319.266632 248.372894,302.195312 
	C251.681076,296.994598 252.534363,291.455780 253.613297,285.766602 
	C260.744629,248.163849 276.553955,214.974731 303.774658,187.658539 
	C311.686066,179.719391 320.471497,172.803864 330.238922,167.291702 
	C333.564606,165.414871 334.537048,163.419891 333.647400,159.724731 
	C331.182922,149.488373 333.994263,140.720291 342.682434,134.679047 
	C351.649811,128.443649 361.134918,128.825790 370.367401,134.552887 
	C375.298798,137.611908 378.152924,142.278259 379.581451,147.746536 
	C380.388275,150.834946 381.863495,152.133347 385.135620,152.003677 
	C388.272186,151.879379 391.442871,152.295609 394.581665,152.632095 
	C398.136047,153.013138 400.211639,152.506561 401.131195,148.106873 
	C403.448120,137.021317 412.959839,130.227005 424.165466,130.737244 
	C434.770630,131.220139 443.236816,138.987930 444.791016,149.770187 
	C445.726898,156.262848 443.401093,161.861969 439.498840,167.059601 
	C442.288666,171.445724 446.733551,174.017410 449.946289,177.805206 
	C458.315369,187.672211 463.474854,198.805664 463.784515,211.801666 
	C463.872437,215.492004 465.545563,217.647675 467.971863,219.786148 
	C475.221558,226.175888 482.501343,232.533279 489.661530,239.022293 
	C497.575684,246.194656 498.049408,254.718018 491.045654,262.725616 
	C489.924530,264.007385 489.021118,265.312073 488.417236,266.900085 
	C481.421478,285.296326 467.697723,293.826202 447.770477,291.742493 
	C431.816467,290.074249 417.775146,294.931244 405.063812,303.956085 
	C393.488068,312.174683 387.462952,324.093964 384.449982,337.698792 
	C384.198364,338.834991 384.144653,340.020813 383.831848,341.136688 
	C382.380310,346.314850 379.312836,347.256836 375.632629,343.394806 
	C371.498230,339.056091 367.695465,334.402771 363.710480,329.920044 
	C350.895172,315.503937 336.710297,302.730255 319.621002,293.496216 
	C313.872955,290.390320 310.348724,290.732513 308.141449,294.352936 
	C305.829651,298.144623 307.334229,302.299896 312.670319,305.431702 
	C336.206207,319.245361 348.232697,340.656799 353.273071,366.672791 
	C354.921936,375.183441 354.772400,374.875000 363.343872,374.984406 
	C380.686340,375.205750 397.855011,377.216766 414.806671,380.998779 
	C421.444580,382.479736 422.260498,381.848145 421.777069,375.173706 
	C420.532196,357.986542 415.488861,341.881104 407.508331,326.656464 
	C403.000641,318.057037 403.558960,315.981567 412.069092,310.061584 
	C414.632721,310.802887 415.866943,313.081787 417.141052,315.133728 
	C428.144501,332.854095 434.314392,352.240173 436.239319,372.922211 
	C436.788269,378.820374 438.655640,382.321350 444.622498,384.621918 
	C462.380402,391.468628 458.710327,388.593231 455.288574,407.432556 
	C455.207336,407.880066 454.808167,408.269867 454.215057,409.255005 
	C449.194244,405.668213 444.300598,401.976624 438.647766,399.586273 
	C423.144653,393.030518 406.734558,390.323486 390.187073,388.435913 
	C373.927948,386.581238 357.569489,387.286194 341.246063,387.374786 
	C335.193268,387.407623 332.114319,389.541260 332.480804,393.147614 
	C332.860809,396.886749 336.843414,398.723450 342.326202,398.410767 
	C369.699585,396.849976 396.923370,397.585449 423.616394,404.742371 
	C430.263000,406.524445 436.532745,409.218323 441.650452,414.042450 
	C449.181702,421.141632 451.776154,431.538544 448.438110,440.531525 
	C446.996765,444.414642 444.671387,446.546356 440.271606,446.380981 
	C434.779785,446.174622 429.213013,446.868103 423.785217,446.244781 
	C403.159241,443.876129 384.487885,451.623138 365.341492,456.989502 
	C357.809174,459.100616 350.280487,461.224762 342.747437,463.333221 
	C341.159576,463.777618 339.463135,464.025848 338.693146,465.900024 
	C339.134094,468.136536 341.127808,468.358185 342.788208,468.945618 
	C345.993408,470.079590 349.399536,470.367493 352.661835,469.881561 
	C357.770233,469.120728 361.636963,469.396667 364.291992,474.985352 
	C366.049957,478.685822 370.584015,478.777374 374.541779,478.776306 
	C405.873352,478.767670 437.221283,479.402618 468.528900,478.547485 
	C482.248718,478.172760 492.932434,482.974030 502.350952,491.711792 
	C522.425354,510.335327 530.450195,533.554199 527.690247,560.687561 
	C527.070068,566.784546 525.461731,572.695190 524.367493,578.568542 
	C526.285339,580.081787 528.206909,579.497253 529.963562,579.571228 
	C544.912842,580.200317 556.346497,591.822998 556.175903,606.802979 
	C556.121582,611.567566 556.703918,614.280945 562.481384,613.964111 
	C566.546997,613.741150 569.577637,616.447754 569.552002,620.801636 
	C569.526672,625.100281 566.627686,627.316589 562.477051,627.780029 
	C560.662476,627.982727 558.818481,627.973450 556.987854,627.973328 
	C515.158569,627.970520 473.329285,627.955750 431.000000,627.944153 
M412.222015,542.280945 
	C422.291656,553.315186 430.758362,565.391479 436.497314,579.277588 
	C439.227692,585.884094 441.708527,586.885559 448.595428,584.171082 
	C456.820648,580.929260 465.279816,579.580627 474.056183,580.830933 
	C484.833710,582.366272 493.237518,589.716431 495.815125,599.618286 
	C496.671906,602.909607 496.386536,606.257141 496.296600,609.567322 
	C496.175018,614.040161 499.220581,613.641602 502.064117,613.671509 
	C504.877289,613.701111 507.789490,614.268372 508.015900,609.796509 
	C508.667053,596.935120 505.740051,585.609375 494.934967,577.474182 
	C492.213135,575.424927 491.397308,572.938354 491.807434,569.653198 
	C494.330627,549.443054 489.133789,530.980408 478.389771,514.041260 
	C472.631409,504.962677 465.268768,497.215515 455.625488,492.019592 
	C452.567413,490.371857 449.378021,488.979523 446.035767,491.631989 
	C446.828735,494.114990 448.806915,495.205933 450.333710,496.674530 
	C469.812531,515.410461 481.005188,537.860535 481.315948,565.276367 
	C481.359528,569.122375 480.465271,570.703430 476.161041,569.917786 
	C468.911530,568.594421 461.527130,568.507996 454.380981,570.601135 
	C450.466675,571.747620 448.421326,570.936340 446.642151,567.060059 
	C428.720490,528.013672 398.660797,502.717560 358.136871,489.303131 
	C338.420898,482.776611 318.128510,479.137054 297.515350,477.636902 
	C285.576874,476.768097 273.529266,477.266174 261.533173,477.387878 
	C256.766449,477.436218 253.445435,480.656525 253.359970,484.525146 
	C253.268082,488.684509 257.097687,492.348541 261.887726,492.617279 
	C263.215393,492.691772 264.557617,492.658875 265.885010,492.562714 
	C285.785675,491.120880 305.469910,493.058594 324.975433,496.778656 
	C358.329437,503.139923 388.133148,516.521301 412.222015,542.280945 
M444.616272,193.909485 
	C438.367035,183.850494 429.386230,176.820984 419.138062,171.319031 
	C413.817627,168.462631 409.746521,168.862244 408.568329,172.114960 
	C406.646149,177.421722 411.070862,178.377060 414.401886,180.192474 
	C425.245758,186.102417 434.477997,193.861038 437.613678,206.280914 
	C440.350342,217.120346 439.267578,227.715240 430.950287,236.455261 
	C429.835419,237.626831 429.158691,239.256439 428.429901,240.747650 
	C424.087952,249.632248 421.768158,258.833923 424.230408,268.745483 
	C425.221863,272.736603 427.110443,275.307648 431.891693,274.613831 
	C435.375244,274.108307 438.826385,275.042389 442.229950,275.917542 
	C446.749664,277.079651 451.348999,278.013611 456.029846,277.654694 
	C462.608948,277.150269 468.417694,274.978790 471.881500,268.828461 
	C472.956696,266.919312 473.620728,265.169678 471.493164,263.074615 
	C462.975464,254.686890 462.696259,250.662399 469.398895,240.722290 
	C469.291443,240.412964 469.274323,240.008362 469.063293,239.808350 
	C464.476959,235.461060 459.892456,231.111328 455.258606,226.814835 
	C450.722565,222.609024 448.329254,217.673843 448.950928,211.282745 
	C449.529907,205.330215 448.049774,199.714279 444.616272,193.909485 
M408.658203,217.599258 
	C410.055481,220.398849 412.209045,221.953110 415.442841,221.604263 
	C418.005341,221.327835 419.787231,219.940628 420.525543,217.472275 
	C421.385437,214.597672 421.236572,211.876816 418.757629,209.712875 
	C416.618439,207.845520 414.162842,207.712524 411.773193,208.834030 
	C408.356567,210.437546 407.820038,213.467178 408.658203,217.599258 
z"/>
<path fill="#000000" opacity="1.000000" stroke="none" 
	d="
M473.806641,363.968353 
	C475.143677,357.874878 476.270721,352.162323 477.691986,346.523895 
	C479.278931,340.227966 482.335114,337.722168 488.654602,337.711029 
	C523.815552,337.649139 558.976868,337.634979 594.137756,337.714233 
	C600.932312,337.729553 604.205444,342.023682 602.845093,348.520172 
	C596.675110,377.985870 590.518188,407.454315 584.317993,436.913696 
	C582.428467,445.891632 579.660156,448.216217 570.745911,448.225586 
	C535.918274,448.262177 501.090607,448.257965 466.262939,448.241058 
	C459.362793,448.237701 456.685364,445.102722 458.060059,438.551636 
	C463.249512,413.821564 468.499329,389.104156 473.806641,363.968353 
M548.359253,388.675598 
	C548.191833,388.211792 548.129822,387.665436 547.840942,387.296692 
	C544.324036,382.806885 529.152771,382.759064 525.743286,387.277924 
	C522.710876,391.296936 523.184387,395.576996 524.970947,399.979584 
	C527.456787,406.105469 530.698425,408.313934 536.649536,407.674225 
	C541.175049,407.187775 544.880920,403.270477 545.731384,397.860657 
	C546.196533,394.902283 546.583984,391.954865 548.359253,388.675598 
z"/>
<path fill="#000000" opacity="1.000000" stroke="none" 
	d="
M513.999878,469.303711 
	C468.701447,469.309875 423.903015,469.332855 379.104645,469.286011 
	C375.841553,469.282593 371.572388,470.584717 371.024384,465.194092 
	C370.621857,461.234344 375.196594,455.445831 379.074097,455.007996 
	C381.545746,454.728912 384.063629,454.812836 386.560760,454.812988 
	C447.346680,454.816315 508.132660,454.804657 568.918335,454.929291 
	C571.537903,454.934662 575.340027,453.091248 576.583740,457.298737 
	C577.592773,460.712402 574.216614,466.559845 570.795715,468.067017 
	C568.302917,469.165283 565.649292,469.295898 562.962402,469.293335 
	C546.808228,469.278015 530.654114,469.296356 513.999878,469.303711 
z"/>
</svg>